<svg version="1.1" id="Layer_1" xmlns="http://www.w3.org/2000/svg" xmlns:xlink="http://www.w3.org/1999/xlink" x="0px" y="0px"
	 viewBox="0 0 12 8.9" style="enable-background:new 0 0 12 8.9;" xml:space="preserve">
<style type="text/css">
	.st0{fill:#00d693;}
</style>
<path class="st0" d="M11.6,3.7L7.9,0.3c-0.4-0.4-1-0.4-1.4,0.1c-0.4,0.4-0.3,1,0.1,1.4l1.9,1.7H1c-0.6,0-1,0.4-1,1c0,0.6,0.4,1,1,1
	h7.4L6.5,7.2c-0.4,0.4-0.4,1-0.1,1.4C6.7,8.8,7,8.9,7.2,8.9c0.2,0,0.5-0.1,0.7-0.3l3.7-3.5C11.8,5,12,4.7,12,4.5S11.8,3.9,11.6,3.7z
	"/>
</svg>
