<?xml version="1.0" encoding="utf-8"?>
<!-- Generator: Adobe Illustrator 22.0.0, SVG Export Plug-In . SVG Version: 6.00 Build 0)  -->
<svg version="1.1" id="Layer_1" xmlns="http://www.w3.org/2000/svg" xmlns:xlink="http://www.w3.org/1999/xlink" x="0px" y="0px"
	 viewBox="0 0 127.7 127.7" style="enable-background:new 0 0 127.7 127.7;" xml:space="preserve">
<style type="text/css">
	.st0{fill:#717173;}
</style>
<g>
	<path class="st0" d="M121.6,58.5L69.2,6.1c-3-3-7.9-3-10.9,0L47.4,17l13.8,13.8c3.2-1.1,6.9-0.4,9.4,2.2c2.6,2.6,3.3,6.3,2.2,9.5
		l13.3,13.3c3.2-1.1,6.9-0.4,9.5,2.2c3.6,3.6,3.6,9.4,0,13c-3.6,3.6-9.4,3.6-13,0c-2.7-2.7-3.4-6.7-2-10L68.2,48.6v32.6
		c0.9,0.4,1.7,1,2.4,1.7c3.6,3.6,3.6,9.4,0,13c-3.6,3.6-9.4,3.6-13,0c-3.6-3.6-3.6-9.4,0-13c0.9-0.9,1.9-1.6,3-2V48
		c-1.1-0.4-2.1-1.1-3-2c-2.7-2.7-3.4-6.7-2-10.1L42.1,22.4L6.1,58.3c-3,3-3,7.9,0,10.9l52.4,52.4c3,3,7.9,3,10.9,0l52.1-52.1
		C124.6,66.4,124.6,61.5,121.6,58.5z"/>
</g>
</svg>
