<?xml version="1.0" encoding="utf-8"?>
<!-- Generator: Adobe Illustrator 22.0.0, SVG Export Plug-In . SVG Version: 6.00 Build 0)  -->
<svg version="1.1" id="layer" xmlns="http://www.w3.org/2000/svg" xmlns:xlink="http://www.w3.org/1999/xlink" x="0px" y="0px"
	 viewBox="0 0 600.1 120.1" style="enable-background:new 0 0 600.1 120.1;" xml:space="preserve">
<style type="text/css">
	.st0{fill:#ffffff;}
	.st1{fill:#ffffff;}
</style>
<g id="logos">
	<g id="Logo">
		<path id="Carrot" class="st0" d="M72,48.1c7.2,7.2,12.9,18.9,9.6,25.8c-8.9,18.6-75.3,51.2-80.9,45.6c-5.7-5.6,27-72.1,45.6-81
			C53.2,35.2,64.9,40.9,72,48.1L72,48.1z"/>
		<path id="Leaves" class="st1" d="M107.2,40.2L107.2,40.2c-1.2-4.3-4.1-8.6-8.5-9.1c-8.1-0.9-20.8,13.3-19.9,16.8
			s18.9,9.4,25.6,4.5C107.9,50,108.3,44.6,107.2,40.2L107.2,40.2z M82.2,0.7c6,1.6,12,5.8,12.8,12C96.3,24,76.3,41.9,71.6,40.6
			S58.5,14.2,65.2,4.7C68.7-0.1,76.2-0.8,82.2,0.7L82.2,0.7z"/>
	</g>
	<g id="Logotype">
		<path class="st1" d="M260.9,67.7l-5.9-0.9c-5.7-0.8-8.9-2.7-8.9-6c0-3.8,4.3-6.2,10.6-6.2c4.1,0.2,8.1,1.4,11.6,3.4l0.7,0.4
			c2.7,1.3,6.1,0.3,7.5-2.4l0.5-0.9c1.6-2.8,0.6-6.3-2.2-7.9c-0.1,0-0.1-0.1-0.2-0.1c-5.5-3-11.6-4.7-17.8-4.8
			c-15.1,0-24.8,7.2-24.8,19c0,9.6,6.9,15.7,20,17.5l6,0.8c6.3,0.9,9.4,2.8,9.4,5.7s-1.5,6.4-11.3,6.4c-5.4,0.1-10.7-1.4-15.3-4.2
			c-0.9-0.5-1.9-0.8-2.9-0.8c-2,0-3.8,1.1-4.8,2.7l-0.3,0.5c-0.8,1.3-1.1,3-0.7,4.5c0.4,1.5,1.4,2.8,2.7,3.5
			c6.6,3.6,13.9,5.7,21.5,5.9c15.8,0,25.5-6.9,25.5-19C281.4,75.2,274.5,69.7,260.9,67.7z"/>
		<path class="st1" d="M444.1,88.9c-1.1-1.3-2.8-2-4.5-2c-1.2,0-2.3,0.3-3.3,1c-3,2-6.6,3-10.2,3.1c-9.6,0-16.3-7.5-16.3-17.8
			s6.9-17.9,16.3-17.9c3.5,0,7,1,10,3c2.5,1.5,5.7,1.2,7.7-0.9l0.5-0.6c2.5-2.6,2.4-6.7-0.2-9.2c-0.3-0.3-0.6-0.5-0.9-0.7
			c-5-3.2-10.8-4.9-16.8-4.8c-18.2,0-30.9,12.7-30.9,30.9s12.7,30.9,30.9,30.9c5.9,0.1,11.8-1.6,16.8-4.8c3-2,3.8-6.1,1.8-9.1
			c-0.2-0.2-0.4-0.5-0.6-0.7L444.1,88.9z"/>
		<path class="st1" d="M150,21.5c-4.6,0-8.4,3.8-8.3,8.5c0,0,0,0,0,0.1c-0.2,4.6,3.4,8.4,8,8.5c0.1,0,0.2,0,0.4,0
			c4.7,0.2,8.7-3.3,8.9-8s-3.3-8.7-8-8.9c-0.3,0-0.6,0-0.9,0L150,21.5L150,21.5z"/>
		<path class="st1" d="M152.6,42.8h-5c-2.4,0-4.4,2-4.4,4.4v50.9c0,2.4,2,4.4,4.4,4.4h5c2.4,0,4.4-2,4.4-4.4V47.2
			C157,44.8,155,42.8,152.6,42.8z"/>
		<path class="st1" d="M315.9,90.7c-6.6,0-12-5.4-12-12v-23H316c2.4,0,4.4-2,4.4-4.4l0,0v-4c0-2.4-2-4.4-4.4-4.4l0,0h-12.2V29.7
			c0-2.4-2-4.4-4.4-4.4h-5.3c-2.4,0-4.4,2-4.4,4.4v48.2c-0.3,14.1,10.8,25.8,25,26.2c0.1,0,0.1,0,0.2,0l0,0c3,0,5.5-2.5,5.5-5.5
			v-3.5C320.4,92.7,318.4,90.7,315.9,90.7z"/>
		<path class="st1" d="M195.4,42.3c-14.8-0.4-27.1,11.3-27.5,26.1c0,0.1,0,0.1,0,0.2v29.5c0,2.4,2,4.4,4.4,4.4h5
			c2.4,0,4.4-2,4.4-4.4l0,0V70.7c0-9.2,5.5-15.2,13.6-15.2s13.6,6.1,13.6,15.2v27.4c0,2.4,2,4.4,4.4,4.4h5c2.4,0,4.4-2,4.4-4.4V68.5
			C222.4,53.7,210.1,42,195.4,42.3C195.5,42.3,195.4,42.3,195.4,42.3z"/>
		<path class="st1" d="M558.7,43c-3-0.4-6.1-0.7-9.2-0.6h-0.7c-14.6,0-26.4,11.8-26.4,26.4v29.3c0,2.4,2,4.4,4.4,4.4l0,0h5
			c2.4,0,4.4-2,4.4-4.4V69.3c-0.4-7.2,5.2-13.4,12.4-13.8c0.3,0,0.6,0,0.9,0c1.4,0,2.8,0.2,4.2,0.5c0.4,0,0.8,0,1.2,0
			c2.8,0,5.2-1.9,5.9-4.7c0.4-1.5,0.6-2.6,0.9-3.6c0.2-1.1,0.1-2.2-0.5-3.1C560.6,43.8,559.7,43.2,558.7,43z"/>
		<path class="st1" d="M595.6,55.7c2.4,0,4.4-2,4.4-4.4l0,0v-4c0-2.4-2-4.4-4.4-4.4l0,0h-12.1V29.7c0-2.4-2-4.4-4.4-4.4h-5.3
			c-2.4,0-4.4,2-4.4,4.4v48.2c-0.3,14.1,10.8,25.8,25,26.2c0.1,0,0.1,0,0.2,0l0,0c3,0,5.5-2.5,5.5-5.5l0,0v-3.5c0-2.4-2-4.4-4.5-4.4
			c-6.6,0-12-5.4-12-12v-23H595.6z"/>
		<path class="st1" d="M499.5,47.1L499.5,47.1c-5-3.2-10.8-4.9-16.8-4.8h-0.5c-5.9-0.1-11.8,1.6-16.8,4.8l0,0
			c-8.8,5.7-13.9,15.6-13.5,26.1c0,12,5.6,21.7,14.7,26.9c4.5,2.6,9.5,4,14.7,4c6.8,0.2,13.3-2.7,17.8-7.9v2.1c0,2.4,2,4.4,4.4,4.4
			h5.1c2.4,0,4.4-2,4.4-4.4v-25C513.5,62.7,508.3,52.8,499.5,47.1z M488,90.1c-1.6,0.5-3.2,0.8-4.8,0.9h-1.3
			c-1.6-0.1-3.2-0.4-4.8-0.9c-6.8-2.7-11.2-9.4-10.8-16.8c0-9.6,6-16.8,14.6-17.7l0,0h0.6h2.2h0.6l0,0c8.5,0.9,14.6,8.1,14.6,17.7
			C499.2,80.6,494.9,87.4,488,90.1z"/>
		<path class="st1" d="M373.9,47.1L373.9,47.1c-5-3.2-10.8-4.9-16.8-4.8h-0.6c-5.9-0.1-11.8,1.6-16.8,4.8l0,0
			c-8.7,5.8-13.8,15.7-13.3,26.1c0,12,5.6,21.7,14.7,26.9c4.5,2.6,9.5,4,14.7,4c6.8,0.2,13.3-2.7,17.7-7.9v2.1c0,2.4,2,4.4,4.4,4.4
			h5c2.4,0,4.4-2,4.4-4.4v-25C387.8,62.7,382.7,52.8,373.9,47.1z M362.4,90.1c-1.6,0.5-3.2,0.8-4.8,0.9h-1.3
			c-1.6-0.1-3.2-0.4-4.8-0.9c-6.9-2.7-11.2-9.4-10.8-16.8c0-9.6,6-16.8,14.6-17.7l0,0h0.6h2.2h0.6h0.1c8.5,0.9,14.6,8.1,14.6,17.7
			C373.6,80.6,369.2,87.4,362.4,90.1z"/>
	</g>
</g>
</svg>
