<?xml version="1.0" encoding="utf-8"?>
<!-- Generator: Adobe Illustrator 22.0.0, SVG Export Plug-In . SVG Version: 6.00 Build 0)  -->
<svg version="1.1" id="Layer_1" xmlns="http://www.w3.org/2000/svg" xmlns:xlink="http://www.w3.org/1999/xlink" x="0px" y="0px"
	 viewBox="0 0 129.3 32" style="enable-background:new 0 0 129.3 32;" xml:space="preserve">
<g>
	<g>
		<g>
			<g>
				<path fill="#ffffff" id="SVGID_13_" d="M28,0H4C1.8,0,0,1.8,0,4v24c0,2.2,1.8,4,4,4h24c2.2,0,4-1.8,4-4V4C32,1.8,30.2,0,28,0z M20.3,5.9
					c0-0.6,0.5-1.1,1.1-1.1s1.1,0.5,1.1,1.1v14.3c0,0.6-0.5,1.1-1.1,1.1s-1.1-0.5-1.1-1.1V5.9z M14.9,5.3c0-0.6,0.5-1.1,1.1-1.1
					s1.1,0.5,1.1,1.1v15.5c0,0.6-0.5,1.1-1.1,1.1s-1.1-0.5-1.1-1.1V5.3z M9.6,5.9c0-0.6,0.5-1.1,1.1-1.1c0.6,0,1.1,0.5,1.1,1.1v14.3
					c0,0.6-0.5,1.1-1.1,1.1s-1.1-0.5-1.1-1.1V5.9z M4.3,8c0-0.6,0.5-1.1,1.1-1.1S6.4,7.4,6.4,8v9.6c0,0.6-0.5,1.1-1.1,1.1
					c-0.6,0-1.1-0.5-1.1-1.1V8z M27.4,24.3c-0.2,0.1-4.1,3.5-11.4,3.5S4.8,24.4,4.6,24.3c-0.4-0.4-0.5-1.1-0.1-1.5
					c0.4-0.4,1.1-0.5,1.5-0.1c0.1,0.1,3.6,2.9,10,2.9c6.5,0,9.9-2.9,10-2.9c0.4-0.4,1.1-0.3,1.5,0.1C27.9,23.2,27.8,23.9,27.4,24.3z
					 M27.7,17.6c0,0.6-0.5,1.1-1.1,1.1s-1.1-0.5-1.1-1.1V8c0-0.6,0.5-1.1,1.1-1.1s1.1,0.5,1.1,1.1C27.7,8,27.7,17.6,27.7,17.6z"/>
			</g>
		</g>
	</g>
	<g>
		<path fill="#ffffff" d="M44.7,20.6c0,0.5-0.4,1-1,1c-0.6,0-1-0.4-1-1v-9.3c0-0.5,0.4-1,1-1c0.6,0,1,0.4,1,1V20.6z"/>
		<path fill="#ffffff" d="M57.4,11.3v8.5c0,1.1-0.6,1.8-1.6,1.8h-0.1c-0.9,0-1.4-0.5-1.8-1.3l-2-3.8l-1.8-4l0,3.8l0,4.3c0,0.5-0.4,1-1,1
			c-0.6,0-1-0.4-1-1v-8.5c0-1.1,0.6-1.8,1.7-1.8h0.1c1,0,1.4,0.5,1.8,1.3l1.9,3.8l1.7,3.7l0-3.5l0-4.3c0-0.5,0.4-1,1-1
			C57,10.4,57.4,10.8,57.4,11.3z"/>
		<path fill="#ffffff" d="M65.2,20.6c0,0.5-0.4,1-1,1c-0.6,0-1-0.4-1-1v-8.4h-2.4c-0.5,0-0.9-0.4-0.9-0.9c0-0.5,0.4-0.9,0.9-0.9h6.8
			c0.5,0,0.9,0.4,0.9,0.9c0,0.5-0.4,0.9-0.9,0.9h-2.4C65.2,12.2,65.2,20.6,65.2,20.6z"/>
		<path fill="#ffffff" d="M71.1,20.3v-8.7c0-0.8,0.5-1.3,1.3-1.2h5.7c0.5,0,0.9,0.4,0.9,0.9s-0.4,0.9-0.9,0.9h-5v2.7h4.4c0.5,0,0.9,0.4,0.9,0.9
			s-0.4,0.9-0.9,0.9h-4.4v3.1h5c0.5,0,0.9,0.4,0.9,0.9s-0.4,0.9-0.9,0.9h-5.7C71.6,21.6,71.1,21.1,71.1,20.3z"/>
		<path fill="#ffffff" d="M90.1,20.3c0.3,0.5,0.1,1-0.5,1.3c-0.5,0.3-1.1,0.1-1.4-0.4l-2.2-4H84l0,3.4c0,0.5-0.4,1-1,1c-0.6,0-1-0.4-1-1v-9
			c0-0.8,0.5-1.3,1.3-1.2h3.7c2.6,0,3.6,1.7,3.6,3.4c0,1.6-0.9,2.8-2.6,3.1L90.1,20.3z M84,15.4h3.1c1.1,0,1.6-0.7,1.6-1.6
			s-0.6-1.6-1.6-1.6H84V15.4z"/>
		<path fill="#ffffff" d="M94.8,20.8c-1.2-1.1-1.7-2.7-1.7-4.8c0-2.1,0.5-3.7,1.7-4.8c0.7-0.6,1.7-1.1,3.1-1.1c1.2,0,2.2,0.3,2.9,0.9
			c0.6,0.5,1.1,1.2,1.3,2.2c0.1,0.5-0.2,1-0.8,1.1c-0.6,0.1-1-0.3-1.2-0.8c-0.2-0.5-0.4-0.9-0.7-1.1C99,12.1,98.5,12,97.8,12
			c-0.7,0-1.3,0.2-1.8,0.7c-0.7,0.7-0.9,1.8-0.9,3.3c0,1.5,0.3,2.7,1,3.3c0.5,0.5,1.1,0.7,1.7,0.7c0.7,0,1.3-0.2,1.7-0.6
			c0.2-0.2,0.4-0.5,0.6-0.8c0.2-0.5,0.6-0.8,1.2-0.7s0.9,0.7,0.7,1.2c-0.3,0.9-0.8,1.6-1.4,2c-0.7,0.5-1.6,0.8-2.7,0.8
			C96.4,21.8,95.5,21.3,94.8,20.8z"/>
		<path fill="#ffffff" d="M104.3,16c0-3.5,1.4-5.8,4.9-5.8c3.4,0,4.8,2.2,4.8,5.8c0,3.6-1.5,5.8-4.8,5.8C105.8,21.8,104.3,19.6,104.3,16z M112,16
			c0-2.7-1-4-2.8-4c-1.8,0-2.8,1.3-2.8,4c0,2.7,0.9,4,2.8,4C111,20,112,18.6,112,16z"/>
		<path fill="#ffffff" d="M129.3,20.6c0,0.5-0.4,1-1,1c-0.6,0-1-0.4-1-1v-4.2l0-4.1l-1.4,4.2l-1.4,4.1c-0.2,0.7-0.7,1-1.3,1c-0.6,0-1.1-0.3-1.4-1
			l-1.4-4.1l-1.3-4.1l0,4v4.2c0,0.5-0.4,1-1,1c-0.6,0-1-0.4-1-1v-8.4c0-1.2,0.6-1.8,1.7-1.8c1,0,1.6,0.5,1.9,1.6l1.4,4.3l0.9,2.9
			l0.9-2.9l1.4-4.3c0.3-1,0.9-1.6,1.9-1.6c1.1,0,1.7,0.7,1.7,1.8L129.3,20.6z"/>
	</g>
</g>
</svg>
