<?xml version="1.0" encoding="utf-8"?>
<!-- Generator: Adobe Illustrator 23.0.3, SVG Export Plug-In . SVG Version: 6.00 Build 0)  -->
<svg version="1.1" id="Layer_1" xmlns="http://www.w3.org/2000/svg" xmlns:xlink="http://www.w3.org/1999/xlink" x="0px" y="0px"
	 viewBox="0 0 66 66" style="enable-background:new 0 0 66 66;" xml:space="preserve">
<style type="text/css">
	.st0{fill:#717173;}
</style>
<g>
	<g>
		<path class="st0" d="M13.9,41.7c0,3.8-3.1,6.9-6.9,6.9S0,45.5,0,41.7c0-3.8,3.1-6.9,6.9-6.9h6.9V41.7z"/>
		<path class="st0" d="M17.4,41.7c0-3.8,3.1-6.9,6.9-6.9s6.9,3.1,6.9,6.9v17.4c0,3.8-3.1,6.9-6.9,6.9s-6.9-3.1-6.9-6.9
			C17.4,59.1,17.4,41.7,17.4,41.7z"/>
	</g>
	<g>
		<path class="st0" d="M24.3,13.9c-3.8,0-6.9-3.1-6.9-6.9S20.5,0,24.3,0s6.9,3.1,6.9,6.9v6.9H24.3z"/>
		<path class="st0" d="M24.3,17.4c3.8,0,6.9,3.1,6.9,6.9s-3.1,6.9-6.9,6.9H6.9c-3.8,0-6.9-3.1-6.9-6.9s3.1-6.9,6.9-6.9
			C6.9,17.4,24.3,17.4,24.3,17.4z"/>
	</g>
	<g>
		<path class="st0" d="M52.1,24.3c0-3.8,3.1-6.9,6.9-6.9c3.8,0,6.9,3.1,6.9,6.9s-3.1,6.9-6.9,6.9h-6.9V24.3z"/>
		<path class="st0" d="M48.6,24.3c0,3.8-3.1,6.9-6.9,6.9c-3.8,0-6.9-3.1-6.9-6.9V6.9c0-3.8,3.1-6.9,6.9-6.9c3.8,0,6.9,3.1,6.9,6.9
			V24.3z"/>
	</g>
	<g>
		<path class="st0" d="M41.7,52.1c3.8,0,6.9,3.1,6.9,6.9c0,3.8-3.1,6.9-6.9,6.9c-3.8,0-6.9-3.1-6.9-6.9v-6.9H41.7z"/>
		<path class="st0" d="M41.7,48.6c-3.8,0-6.9-3.1-6.9-6.9c0-3.8,3.1-6.9,6.9-6.9h17.4c3.8,0,6.9,3.1,6.9,6.9c0,3.8-3.1,6.9-6.9,6.9
			H41.7z"/>
	</g>
</g>
</svg>
